#N canvas 47 23 1225 855 12;
#X obj 232 514 tabwrite~ \$0-voice1;
#X obj 218 438 bng 15 250 50 0 empty empty empty 17 7 0 10 -262144
-1 -1;
#X msg 165 435 stop;
#N canvas 0 22 450 278 (subpatch) 0;
#X array \$0-voice1 441000 float 2;
#X coords 0 1 441000 -1 200 140 1 0 0;
#X restore 101 767 graph;
#X obj 586 291 tabread4~ \$0-voice1;
#X floatatom 935 398 5 0 0 0 - - -;
#X obj 709 393 moses 0;
#X floatatom 756 420 5 0 0 0 - - -;
#X obj 757 477 mtof;
#X obj 994 595 line~;
#X obj 755 653 *~;
#X obj 755 529 line~;
#X obj 584 481 *~;
#X obj 145 324 tgl 15 0 empty empty record 17 7 0 10 -262144 -1 -1
0 1;
#X obj 145 396 sel 0 1;
#X obj 136 601 timer;
#X msg 66 561 tempo 1 samp;
#X obj 66 536 loadbang;
#X obj 61 452 s sampleStop;
#X msg 587 192 1 \$1;
#X obj 261 652 samplerate~;
#X obj 261 627 loadbang;
#X obj 136 634 s lengthSamples;
#X obj 222 730 s lengthMs;
#X obj 587 103 r lengthMs;
#X obj 587 229 line~;
#X obj 586 262 *~;
#X obj 635 227 r lengthSamples;
#X obj 222 703 / 44.1;
#X obj 751 221 delay;
#X obj 587 161 t f b f b, f 31;
#X obj 751 244 bng 15 250 50 0 empty empty empty 17 7 0 10 -262144
-1 -1;
#X obj 802 289 line~;
#X obj 709 333 *~;
#X msg 751 264 0 10;
#X msg 801 264 3 5;
#X obj 587 133 pipe 10;
#X obj 730 192 - 10;
#X obj 755 600 talkBackSynth;
#X obj 1023 246 sigmund~;
#X obj 992 281 f;
#X obj 992 221 bng 15 250 50 0 empty empty empty 17 7 0 10 -262144
-1 -1;
#X obj 994 454 -;
#X obj 992 161 loadbang;
#X obj 992 360 t b f;
#X floatatom 994 478 5 0 0 0 - - -;
#X obj 995 544 clip 0 1;
#X obj 994 511 / 40;
#X obj 757 449 + 12;
#X msg 757 506 \$1;
#X obj 1024 404 + 20;
#X msg 994 571 \$1 5;
#X obj 379 264 loadbang;
#X msg 379 289 in 12;
#X obj 379 314 s bela_setDigital;
#X obj 145 265 r bela_digitalIn12;
#X obj 215 327 print digital12;
#X obj 64 663 print lengthSamples;
#X msg 658 193 0;
#X obj 261 676 / 1000;
#X obj 145 292 bela_debounce;
#X obj 1006 313 print noise;
#X obj 992 190 delay 1000;
#X text 198 600 measure how long the button was held;
#X text 239 436 record sound into buffer;
#X text 806 446 bring up an octave;
#X obj 843 544 loadbang;
#X msg 843 567 0.5;
#X text 842 520 synth_volume;
#X obj 755 676 throw~ output;
#X obj 575 744 catch~ output;
#X obj 575 775 dac~ 1 2;
#X obj 602 432 loadbang;
#X msg 602 455 0.5;
#X text 601 408 sample_volume;
#X obj 584 556 throw~ output;
#X obj 1023 222 adc~ 1;
#X obj 232 482 adc~ 1;
#X text 25 56 This patch makes a fun sound back at you in response
to a sound.;
#X text 25 99 When a button is held down \, the audio input is recorded.
;
#X text 23 224 enjoy!;
#X text 23 130 As soon as the button is released \, the recording that
;
#X text 23 143 was just made is played back.;
#X text 22 175 However instead of hearing the recording \, it is played
;
#X text 22 189 back through a pitch detector and into a synth.;
#X text 26 21 TALKBACK // Yann Seznec 2022 // yannseznec.com;
#X obj 709 362 sigmund~ -hop 1024 pitch env;
#X connect 1 0 0 0;
#X connect 1 0 15 0;
#X connect 2 0 0 0;
#X connect 4 0 12 0;
#X connect 4 0 33 0;
#X connect 5 0 42 0;
#X connect 6 1 7 0;
#X connect 7 0 48 0;
#X connect 8 0 49 0;
#X connect 9 0 10 1;
#X connect 10 0 69 0;
#X connect 11 0 38 0;
#X connect 12 0 75 0;
#X connect 13 0 14 0;
#X connect 14 0 2 0;
#X connect 14 0 15 1;
#X connect 14 0 18 0;
#X connect 14 1 1 0;
#X connect 15 0 57 0;
#X connect 15 0 22 0;
#X connect 15 0 28 0;
#X connect 16 0 15 0;
#X connect 17 0 16 0;
#X connect 19 0 25 0;
#X connect 20 0 59 0;
#X connect 21 0 20 0;
#X connect 24 0 36 0;
#X connect 25 0 26 0;
#X connect 26 0 4 0;
#X connect 27 0 26 1;
#X connect 28 0 23 0;
#X connect 29 0 31 0;
#X connect 30 0 19 0;
#X connect 30 1 58 0;
#X connect 30 2 37 0;
#X connect 30 3 35 0;
#X connect 31 0 34 0;
#X connect 32 0 33 1;
#X connect 33 0 86 0;
#X connect 34 0 32 0;
#X connect 35 0 32 0;
#X connect 36 0 30 0;
#X connect 37 0 29 0;
#X connect 38 0 10 0;
#X connect 39 1 40 1;
#X connect 40 0 44 0;
#X connect 40 0 61 0;
#X connect 41 0 40 0;
#X connect 42 0 45 0;
#X connect 43 0 62 0;
#X connect 44 0 42 0;
#X connect 44 1 50 0;
#X connect 45 0 47 0;
#X connect 46 0 51 0;
#X connect 47 0 46 0;
#X connect 48 0 8 0;
#X connect 49 0 11 0;
#X connect 50 0 42 1;
#X connect 51 0 9 0;
#X connect 52 0 53 0;
#X connect 53 0 54 0;
#X connect 55 0 60 0;
#X connect 58 0 25 0;
#X connect 59 0 28 1;
#X connect 60 0 13 0;
#X connect 60 0 56 0;
#X connect 62 0 41 0;
#X connect 66 0 67 0;
#X connect 67 0 38 1;
#X connect 70 0 71 0;
#X connect 70 0 71 1;
#X connect 72 0 73 0;
#X connect 73 0 12 1;
#X connect 76 0 39 0;
#X connect 77 0 0 0;
#X connect 86 0 6 0;
#X connect 86 1 5 0;
